<svg xmlns="http://www.w3.org/2000/svg" width="21.5" height="20.049" viewBox="0 0 21.5 20.049">
  <g id="Compare_icon" data-name="Compare icon" transform="translate(-246.185 -304.952)">
    <g id="Group_8" data-name="Group 8" transform="translate(246.935 306.012)">
      <path id="Path_19" data-name="Path 19" d="M266.935,309.9h-4.022a2.452,2.452,0,0,0-2.027,1.071l-6.363,9.335a2.451,2.451,0,0,1-2.027,1.071h-5.561" transform="translate(-246.935 -307.31)" fill="none" stroke="#0e153d" stroke-linecap="round" stroke-linejoin="round" stroke-width="1.5"/>
      <path id="Path_20" data-name="Path 20" d="M273.043,306.012l2.594,2.594-2.594,2.594" transform="translate(-255.638 -306.012)" fill="none" stroke="#0e153d" stroke-linecap="round" stroke-linejoin="round" stroke-width="1.5"/>
    </g>
    <g id="Group_9" data-name="Group 9" transform="translate(246.935 309.867)">
      <path id="Path_21" data-name="Path 21" d="M266.935,323.274h-4.022a2.454,2.454,0,0,1-2.027-1.071l-6.363-9.336A2.453,2.453,0,0,0,252.5,311.8h-5.561" transform="translate(-246.935 -311.795)" fill="none" stroke="#0e153d" stroke-linecap="round" stroke-linejoin="round" stroke-width="1.5"/>
      <path id="Path_22" data-name="Path 22" d="M273.043,325.121l2.594,2.594-2.594,2.594" transform="translate(-255.638 -316.237)" fill="none" stroke="#0e153d" stroke-linecap="round" stroke-linejoin="round" stroke-width="1.5"/>
    </g>
  </g>
</svg>
